PathFileType	3	(X/Y/Z)	D:\minhoCalibration\240510\subject3_KPNP\preferred\preferred19.trc
DataRate	CameraRate	NumFrames	NumMarkers	Units	OrigDataRate	OrigDataStartFrame	OrigNumFrames
200.0	200.0	24	10	mm	200.0	178	131	
Frame#	Time	Left_Ankle_Outer1			Left_Ankle_Inner1			Left_Knee_Outer1			Left_Knee_Inner1			Left_Wrist1			Right_Wrist1			Right_Knee_Inner1			Right_Knee_Outer1			Right_Ankle_Inner1			Right_Ankle_Outer1			
		X1	Y1	Z1	X2	Y2	Z2	X3	Y3	Z3	X4	Y4	Z4	X5	Y5	Z5	X6	Y6	Z6	X7	Y7	Z7	X8	Y8	Z8	X9	Y9	Z9	X10	Y10	Z10	
178	0.88	-361.51352	123.34074	-505.28467	-412.53479	141.80731	-484.56839	-189.5242	520.6535	-425.73328	-257.55164	538.48126	-349.20956	-193.17398	896.47357	-664.61774	-401.72162	1101.7051	-418.3334	-360.84274	906.72363	-27.463381	-386.05923	1021.1597	-43.377705	-778.75464	782.38806	-45.454933	-808.84839	875.93073	-7.6578245
179	0.885	-361.36566	121.92766	-505.6507	-412.23959	141.04961	-485.40479	-190.19046	520.16931	-423.8024	-258.43121	537.79291	-347.66235	-197.05962	893.23035	-665.96716	-399.35226	1103.889	-419.80249	-350.37231	921.34198	-26.967779	-371.88242	1033.9724	-47.247562	-770.05841	802.03613	0.96967942	-795.47351	897.57574	35.859058
180	0.89	-360.5737	121.4844	-506.01007	-412.06464	140.31029	-486.21008	-190.73801	519.03455	-422.11212	-259.69949	537.09906	-346.58771	-200.67769	889.86328	-667.00165	-396.74197	1105.5964	-421.68912	-341.26486	934.91278	-27.441254	-359.52158	1045.9001	-52.317318	-757.26733	821.5575	50.988575	-778.93488	919.85962	79.690605
181	0.895	-360.31882	120.71971	-506.22009	-411.79822	139.61339	-486.95453	-191.37123	518.06952	-420.2095	-260.95334	536.08411	-346.07452	-204.17432	886.31097	-667.64844	-394.76053	1107.1814	-423.67163	-333.84906	947.74713	-29.021395	-349.53311	1055.9064	-58.44759	-740.04022	842.78821	101.60448	-758.51855	943.31232	123.95872
182	0.9	-359.9407	120.1804	-506.4447	-411.53235	138.75021	-487.22647	-191.99158	517.06708	-418.2836	-262.69321	535.23218	-343.90958	-207.32513	882.76752	-667.92682	-392.87311	1108.6909	-425.60895	-327.58994	959.31268	-30.652578	-342.21725	1064.4119	-65.047035	-718.04657	867.07196	147.92664	-733.16095	967.65808	166.22093
183	0.905	-359.93384	119.7594	-506.53094	-411.69806	138.23615	-487.67661	-192.71759	516.05017	-416.31161	-264.31058	534.17834	-342.87006	-210.40073	879.12219	-667.7193	-391.59857	1109.6224	-428.48624	-322.7579	969.67554	-33.025421	-337.577	1071.4407	-71.799263	-690.38287	891.50934	193.90848	-703.05255	992.91077	206.45114
184	0.91	-360.1087	119.42143	-506.61249	-412.24167	138.2083	-488.17172	-193.40411	515.19659	-414.37158	-265.29929	533.53162	-341.30557	-213.21257	875.62305	-667.08783	-390.57892	1110.2959	-431.18988	-320.06937	978.27747	-36.069237	-335.43268	1076.6921	-78.402626	-657.0639	916.39893	240.59061	-668.49377	1019.4365	243.77034
185	0.915	-361.19757	118.70859	-506.1217	-412.57535	137.96346	-488.30255	-194.21025	514.37793	-412.42346	-266.55698	532.78986	-340.40891	-215.69775	872.28223	-666.05811	-389.8963	1110.7158	-434.00903	-319.06659	984.92938	-39.501888	-335.69513	1080.5494	-84.040024	-620.95282	941.47327	276.9837	-630.15833	1046.1606	277.28064
186	0.92	-360.94016	119.24254	-506.56104	-413.08624	137.87531	-488.29556	-194.71954	513.82965	-410.71625	-268.03717	532.36176	-338.87872	-218.04164	869.263	-664.4364	-389.89908	1110.9573	-437.0596	-319.63742	989.66602	-42.786285	-337.03595	1083.2487	-89.076187	-578.94965	968.0976	310.10599	-587.64874	1072.5244	304.67056
187	0.925	-362.31647	118.73975	-506.05637	-413.72037	137.78038	-488.07147	-195.54471	513.37262	-408.93094	-268.63358	532.08636	-337.11865	-220.16597	866.76953	-662.30286	-389.86115	1110.7007	-439.90973	-321.38632	993.315	-45.684303	-339.89328	1084.6467	-92.961975	-530.89948	996.46808	340.35938	-541.82642	1098.0487	325.56723
188	0.93	-362.93347	118.83389	-506.00064	-414.40076	137.79245	-487.86279	-196.18362	513.138	-407.42258	-269.57199	531.42639	-335.72128	-222.09311	864.71857	-659.47107	-390.86057	1110.7892	-442.75742	-323.00348	996.3443	-48.409054	-343.99973	1085.103	-96.068336	-478.5448	1020.3604	356.04507	-494.89548	1121.4574	338.74115
189	0.935	-362.90839	119.48277	-506.23697	-415.0444	137.80618	-487.64621	-197.01379	512.96582	-405.92502	-270.40704	531.38995	-334.33044	-223.59688	863.41101	-656.11536	-392.58902	1111.1084	-444.82062	-325.07898	999.04529	-51.285664	-349.35263	1084.8278	-98.587143	-432.15302	1039.946	362.84384	-445.866	1142.2844	342.55219
190	0.94	-363.56992	119.48067	-506.15268	-415.64871	137.77974	-487.48053	-197.88785	513.05084	-404.51321	-270.86844	531.07452	-332.11179	-224.81937	862.75684	-652.01813	-395.46426	1111.9771	-445.65158	-326.56033	1001.3298	-54.089565	-355.55957	1086.2361	-100.00614	-400.61581	1058.912	361.01572	-413.58377	1161.6221	334.43127
191	0.945	-364.13919	119.48761	-506.11121	-416.18115	137.66245	-487.37466	-198.5302	513.26282	-403.2009	-271.39325	531.02118	-330.22623	-225.61717	862.98004	-647.19116	-398.85504	1113.1868	-445.58176	-326.70233	1002.5277	-56.440838	-362.02216	1091.1782	-102.06117	-393.24435	1069.5861	360.35812	-396.94504	1172.1488	324.72336
192	0.95	-364.37317	119.53316	-506.14352	-416.55411	137.35983	-487.36389	-199.63545	513.42786	-401.55371	-272.56192	530.20605	-327.86707	-225.75703	863.55719	-641.98566	-402.84988	1114.1812	-444.95737	-324.77197	1002.5157	-58.129692	-368.79697	1094.9448	-103.99641	-391.80215	1077.5959	360.45758	-393.42007	1178.2283	321.5285
193	0.955	-365.09515	118.602	-505.84857	-416.68127	136.89633	-487.66672	-201.15674	513.37018	-399.83319	-273.48438	529.69647	-325.55557	-225.49475	864.20581	-636.3819	-407.35599	1114.5619	-443.87909	-322.02826	1003.3312	-59.207172	-374.58087	1098.0001	-104.92529	-392.9043	1074.9114	355.39886	-394.38474	1178.3661	326.35916
194	0.96	-364.22934	118.43405	-506.27692	-416.5191	136.27066	-488.23746	-202.37402	513.71753	-397.69113	-274.80811	528.75574	-323.58618	-224.43588	865.06915	-630.58777	-412.46185	1114.1774	-442.57599	-318.98511	1006.5725	-60.271572	-377.23502	1100.9523	-106.26696	-393.99722	1068.1886	352.39249	-397.68991	1173.2472	329.74374
195	0.965	-363.30746	117.79288	-506.44904	-415.9639	135.37457	-488.98077	-204.43523	513.86523	-395.23364	-276.82327	527.97717	-321.32581	-222.91782	865.8432	-624.83325	-417.6579	1112.9761	-441.05847	-316.27338	1011.274	-61.608459	-374.92557	1103.4064	-108.08858	-395.36047	1061.0173	352.54984	-404.03073	1164.5743	331.47446
196	0.97	-362.35583	116.91515	-506.69272	-415.35623	134.3387	-490.08197	-206.84496	514.03229	-392.43533	-279.42831	527.00824	-320.15341	-221.06529	866.83344	-619.30121	-422.6481	1110.6219	-439.71127	-314.42728	1016.5752	-63.571579	-368.59277	1104.9001	-108.02539	-395.22339	1054.7537	352.90982	-409.12695	1155.4491	334.24155
197	0.975	-361.32214	115.90354	-507.07196	-414.56403	133.09129	-491.57623	-209.58878	514.1203	-389.36932	-283.47232	526.68042	-318.21182	-219.20163	867.77228	-614.15338	-427.51276	1108.2909	-438.39658	-314.30783	1021.4628	-65.669434	-360.73309	1104.2556	-108.00829	-393.70184	1047.381	351.40356	-412.92111	1147.9657	336.09912
198	0.98	-360.48721	114.79929	-507.45605	-414.04211	131.702	-493.07877	-212.31447	513.89856	-386.42868	-288.26129	526.27124	-317.39093	-217.24948	868.68549	-609.60626	-432.18793	1105.8779	-437.24551	-316.11938	1024.6847	-66.793518	-354.12402	1102.4053	-110.39658	-391.50058	1040.623	348.99982	-414.49332	1140.6001	337.12152
199	0.985	-359.64893	113.75712	-508.14008	-413.55032	130.23535	-494.509	-215.23953	513.85345	-383.27185	-293.29285	525.81659	-317.62564	-215.20039	869.53326	-605.75397	-436.92697	1103.8394	-436.41446	-320.06067	1024.8417	-66.586403	-353.6059	1098.1792	-113.73402	-389.38983	1033.8307	346.45355	-414.75568	1134.1293	337.38519
200	0.99	-357.76447	113.63428	-508.9082	-413.34473	128.98441	-495.79517	-218.27159	513.78766	-380.22818	-299.10822	525.18811	-317.77274	-213.3895	870.34943	-602.51465	-440.64429	1101.5077	-435.51807	-324.55933	1022.0127	-66.075211	-359.75354	1094.7853	-114.76665	-388.8028	1027.6417	346.69223	-416.07281	1128.0267	338.71576
201	0.995	-358.1329	112.49748	-509.31287	-413.42163	128.00743	-497.01443	-221.29349	513.33673	-377.77399	-304.53592	524.51831	-319.04794	-211.67583	871.10498	-599.66406	-444.28098	1099.8948	-435.41006	-328.47253	1017.8336	-66.535912	-368.97546	1094.0466	-113.90815	-388.52408	1021.0166	348.25769	-418.42032	1121.3833	339.7348
